<svg width="204" height="33" viewBox="0 0 204 33" fill="none" xmlns="http://www.w3.org/2000/svg">
<g clip-path="url(#clip0_366_449)">
<path d="M57.4659 1.50322L55.8482 12.4373C55.836 12.6166 55.7894 12.7917 55.7111 12.9525C55.6328 13.1133 55.5243 13.2566 55.3919 13.3742C55.2594 13.4918 55.1057 13.5813 54.9394 13.6377C54.7732 13.6941 54.5977 13.7162 54.4231 13.7027C54.25 13.7122 54.077 13.6816 53.917 13.6132C53.757 13.5447 53.614 13.4402 53.4987 13.3073C53.3959 13.1528 53.3242 12.9788 53.2878 12.7954C53.2514 12.612 53.2511 12.4231 53.2869 12.2396L54.3268 5.39837L50.4752 11.073C50.3442 11.2723 50.1736 11.4408 49.9745 11.5673C49.7828 11.684 49.5615 11.7391 49.339 11.7255C49.1051 11.7387 48.8739 11.6689 48.6842 11.5278C48.4516 11.38 48.2646 11.1675 48.145 10.9148L45.9881 5.43791L44.9097 12.4373C44.8999 12.6158 44.8556 12.7904 44.7793 12.9511C44.7031 13.1118 44.5964 13.2552 44.4655 13.373C44.3346 13.4908 44.1821 13.5807 44.017 13.6373C43.8519 13.6939 43.6774 13.7162 43.5038 13.7027C43.3214 13.72 43.1376 13.6932 42.9671 13.6246C42.7965 13.5559 42.644 13.4473 42.5217 13.3073C42.4286 13.1486 42.3671 12.9725 42.3407 12.7893C42.3142 12.606 42.3234 12.4192 42.3676 12.2396L44.043 1.28573C44.0738 0.930408 44.2316 0.599356 44.486 0.356428C44.752 0.117801 45.0958 -0.00925933 45.4489 0.000525939C45.7276 0.00754777 45.9971 0.104388 46.2192 0.277338C46.4625 0.496724 46.6479 0.775539 46.7584 1.088L49.5123 8.46308L54.7697 0.89028C54.9373 0.624847 55.1611 0.401779 55.4245 0.237794C55.6981 0.0941246 56.0034 0.0259863 56.3104 0.0400706C56.4884 0.0203868 56.6684 0.0441556 56.8357 0.10944C57.003 0.174724 57.153 0.279677 57.2733 0.415745C57.3809 0.571498 57.454 0.749612 57.4873 0.937516C57.5205 1.12542 57.5132 1.31853 57.4659 1.50322Z" fill="#04BDF5"/>
<path d="M70.5998 11.9623L67.403 1.24569C67.3203 0.892108 67.1317 0.574035 66.8638 0.336161C66.5842 0.129541 66.2451 0.0251171 65.9009 0.0395759C65.5708 0.0257789 65.2437 0.108029 64.9572 0.276844C64.6816 0.48165 64.4518 0.74456 64.2832 1.04796L57.774 12.0018C57.6023 12.2556 57.527 12.565 57.5622 12.8718C57.5814 13.0009 57.6275 13.1242 57.6972 13.2334C57.767 13.3426 57.8589 13.4351 57.9666 13.5045C58.2128 13.6681 58.5016 13.7508 58.7947 13.7418C59.1106 13.7618 59.4253 13.6862 59.6998 13.5243C59.9388 13.3637 60.1369 13.1468 60.2775 12.8916L61.5486 10.6573H67.6534L68.1156 12.4368C68.1812 12.8066 68.3482 13.1496 68.597 13.4254C68.8515 13.5972 69.1494 13.6888 69.454 13.6888C69.7586 13.6888 70.0565 13.5972 70.311 13.4254C70.5186 13.2881 70.6695 13.0769 70.7346 12.8323C70.7659 12.5351 70.7193 12.2348 70.5998 11.9623ZM62.7811 8.36372L65.6505 3.34155L66.9408 8.36372H62.7811Z" fill="#04BDF5"/>
<path d="M83.8686 2.11626L79.6896 6.92093L82.4627 11.6663C82.645 11.9528 82.7265 12.2946 82.6938 12.6351C82.6437 12.9449 82.4864 13.2257 82.2509 13.426C81.9953 13.6383 81.6745 13.7504 81.3458 13.7424C81.0577 13.7598 80.7725 13.6762 80.5369 13.5051C80.265 13.2623 80.0424 12.9666 79.8822 12.6351L77.7253 8.81907L74.4514 12.7735C74.2317 13.0499 73.9719 13.29 73.6811 13.4853C73.4302 13.6356 73.1434 13.7109 72.853 13.7028C72.6892 13.7115 72.5255 13.6842 72.3727 13.6228C72.22 13.5615 72.0817 13.4674 71.9671 13.3469C71.8625 13.2412 71.7797 13.1149 71.7234 12.9757C71.6672 12.8364 71.6387 12.687 71.6397 12.5363C71.6526 12.173 71.7968 11.8276 72.0442 11.5674L76.3002 6.62435L73.6618 2.09648C73.4809 1.80203 73.3997 1.45454 73.4307 1.10787C73.4459 0.956326 73.4913 0.809624 73.5642 0.676939C73.6371 0.544255 73.7359 0.428443 73.8544 0.336748C74.0996 0.117111 74.4149 -0.00249223 74.7403 0.000618532C75.034 -0.0137656 75.3244 0.0694383 75.5684 0.237886C75.8275 0.488044 76.0425 0.782386 76.2039 1.10787L78.2452 4.76575L81.3843 0.969462C81.6045 0.687903 81.8641 0.441372 82.1546 0.237886C82.4082 0.0964344 82.6943 0.0281096 82.9827 0.0401632C83.148 0.0286366 83.3139 0.0525693 83.4697 0.110438C83.6255 0.168307 83.7679 0.258846 83.8878 0.376293C84.0965 0.585557 84.2203 0.868085 84.2345 1.16719C84.2347 1.51985 84.1038 1.85931 83.8686 2.11626Z" fill="#04BDF5"/>
<path d="M86.064 13.8409C85.8627 13.8603 85.66 13.827 85.4747 13.744C85.2895 13.661 85.1278 13.531 85.0048 13.3664C84.8939 13.1785 84.8214 12.9694 84.7916 12.7519C84.7618 12.5344 84.7753 12.3129 84.8315 12.1009L86.4491 1.6216C86.4888 1.20082 86.6732 0.808305 86.9691 0.514351C87.109 0.357242 87.2783 0.230733 87.4669 0.142399C87.6555 0.0540645 87.8596 0.00572353 88.0668 0.000270761C88.2631 -0.016273 88.4603 0.0164853 88.6415 0.0957166C88.8227 0.174948 88.9824 0.298271 89.1067 0.455034C89.3147 0.847582 89.3763 1.30444 89.2801 1.74023L87.6431 12.1998C87.6131 12.6249 87.4354 13.0248 87.1424 13.3268C86.8631 13.6376 86.4755 13.8224 86.064 13.8409Z" fill="#04BDF5"/>
<path d="M105.438 1.50298L103.762 12.4371C103.75 12.6164 103.703 12.7915 103.625 12.9523C103.547 13.113 103.438 13.2563 103.306 13.3739C103.173 13.4915 103.02 13.5811 102.853 13.6375C102.687 13.6939 102.512 13.716 102.337 13.7025C102.163 13.7166 101.989 13.6881 101.828 13.6193C101.668 13.5505 101.525 13.4435 101.413 13.307C101.306 13.1547 101.231 12.9807 101.195 12.7966C101.158 12.6125 101.16 12.4226 101.201 12.2393L102.241 5.39812L98.3891 11.0728C98.2646 11.2707 98.1004 11.4393 97.9076 11.5671C97.7159 11.6837 97.4946 11.7388 97.2721 11.7253C97.0378 11.7418 96.8056 11.6717 96.6173 11.5275C96.4264 11.3603 96.2749 11.1507 96.1744 10.9146L93.9597 5.43767L92.8813 12.4371C92.8423 12.79 92.6858 13.1182 92.4384 13.3664C92.1686 13.5962 91.8258 13.7159 91.4755 13.7025C91.2928 13.723 91.108 13.6978 90.937 13.6289C90.7659 13.56 90.6137 13.4496 90.4933 13.307C90.3938 13.1511 90.3255 12.9764 90.2924 12.7931C90.2593 12.6098 90.2622 12.4215 90.3007 12.2393L91.9954 1.28548C92.0344 0.932592 92.1909 0.604345 92.4384 0.356182C92.7023 0.114047 93.0475 -0.013533 93.4013 0.000280357C93.7013 -0.016992 93.9987 0.0662763 94.2486 0.237548C94.4888 0.455711 94.6682 0.735474 94.7686 1.04821L97.5417 8.42329L102.722 0.890035C102.901 0.627697 103.131 0.405666 103.396 0.237548C103.669 0.0921156 103.975 0.0238735 104.282 0.039825C104.46 0.0201412 104.64 0.0439101 104.807 0.109194C104.975 0.174479 105.125 0.279431 105.245 0.415499C105.353 0.571252 105.426 0.749367 105.459 0.93727C105.492 1.12517 105.485 1.31829 105.438 1.50298Z" fill="#04BDF5"/>
<path d="M107.729 13.8409C107.528 13.8603 107.325 13.827 107.14 13.744C106.955 13.661 106.793 13.531 106.67 13.3664C106.559 13.1785 106.487 12.9694 106.457 12.7519C106.427 12.5344 106.441 12.3129 106.497 12.1009L108.114 1.6216C108.154 1.20082 108.338 0.808305 108.634 0.514351C108.779 0.35242 108.954 0.22309 109.15 0.134586C109.345 0.046082 109.557 0.000340504 109.771 0.000270761C109.967 -0.016273 110.164 0.0164853 110.345 0.0957166C110.526 0.174948 110.686 0.298271 110.811 0.455034C111.018 0.847582 111.08 1.30444 110.984 1.74023L109.347 12.1998C109.316 12.6207 109.146 13.0182 108.865 13.3268C108.567 13.6447 108.159 13.8294 107.729 13.8409Z" fill="#04BDF5"/>
<path d="M113.314 13.5645C113.113 13.583 112.91 13.5553 112.72 13.4835C112.53 13.4117 112.358 13.2976 112.216 13.1493C112.099 12.9792 112.016 12.7864 111.973 12.5825C111.93 12.3786 111.927 12.1678 111.966 11.963L113.622 1.40455C113.656 1.00895 113.835 0.641307 114.123 0.376392C114.413 0.125386 114.783 -0.00818655 115.163 0.00071791C115.358 -0.015978 115.555 0.0126681 115.738 0.0845385C115.922 0.156409 116.087 0.269666 116.222 0.415937C116.334 0.588438 116.411 0.782648 116.447 0.98665C116.484 1.19065 116.479 1.40015 116.434 1.60228L114.99 11.0534H119.688C120.028 11.0274 120.367 11.1178 120.651 11.3105C120.758 11.3974 120.843 11.509 120.9 11.6361C120.957 11.7632 120.984 11.9023 120.979 12.0421C120.998 12.4489 120.859 12.8469 120.594 13.1493C120.45 13.2812 120.283 13.3824 120.101 13.4469C119.919 13.5114 119.726 13.538 119.534 13.525L113.314 13.5645Z" fill="#04BDF5"/>
<path d="M123.79 13.8409C123.589 13.8603 123.386 13.8269 123.201 13.7439C123.016 13.6609 122.854 13.531 122.731 13.3663C122.62 13.1784 122.548 12.9694 122.518 12.7519C122.488 12.5343 122.502 12.3129 122.558 12.1009L124.176 1.62156C124.215 1.20078 124.4 0.808265 124.696 0.514312C124.835 0.357203 125.005 0.230693 125.193 0.142359C125.382 0.0540252 125.586 0.00568422 125.793 0.000231453C125.987 -0.0182902 126.182 0.0136783 126.36 0.0931744C126.539 0.17267 126.695 0.297122 126.814 0.454995C126.925 0.646313 126.998 0.8587 127.028 1.0795C127.058 1.3003 127.044 1.52499 126.987 1.7402L125.37 12.2393C125.325 12.6603 125.149 13.0554 124.869 13.3663C124.583 13.6626 124.196 13.8328 123.79 13.8409Z" fill="#04BDF5"/>
<path d="M140.102 11.9623L136.982 1.24569C136.899 0.892108 136.711 0.574035 136.443 0.336161C136.163 0.129541 135.824 0.0251171 135.48 0.0395759C135.15 0.0257789 134.823 0.108029 134.536 0.276844C134.261 0.48165 134.031 0.74456 133.862 1.04796L127.257 12.0018C127.085 12.2556 127.01 12.565 127.045 12.8718C127.064 13.0009 127.11 13.1242 127.18 13.2334C127.25 13.3426 127.342 13.4351 127.449 13.5045C127.702 13.6708 127.997 13.7536 128.297 13.7418C128.587 13.7478 128.873 13.6726 129.125 13.5243C129.364 13.3637 129.562 13.1468 129.703 12.8916L130.954 10.6573H137.059L137.521 12.4368C137.587 12.8066 137.754 13.1496 138.003 13.4254C138.257 13.5972 138.555 13.6888 138.86 13.6888C139.164 13.6888 139.462 13.5972 139.717 13.4254C139.924 13.2881 140.075 13.0769 140.14 12.8323C140.202 12.5438 140.189 12.2438 140.102 11.9623ZM132.283 8.36372L135.153 3.34155L136.443 8.36372H132.283Z" fill="#04BDF5"/>
<path d="M154.796 1.64121L153.12 12.4567C153.095 12.811 152.952 13.1458 152.716 13.4057C152.608 13.5171 152.478 13.6044 152.336 13.6622C152.193 13.72 152.041 13.7471 151.888 13.7419C151.576 13.7555 151.267 13.6729 151.002 13.5046C150.755 13.3095 150.545 13.068 150.386 12.7928L145.706 4.76524L144.531 12.3776C144.505 12.7571 144.348 13.1145 144.088 13.386C143.95 13.5122 143.788 13.6088 143.613 13.6699C143.438 13.731 143.252 13.7555 143.068 13.7419C142.887 13.7564 142.707 13.7241 142.542 13.6481C142.377 13.5721 142.233 13.4548 142.124 13.3069C142.01 13.1314 141.933 12.9338 141.896 12.7264C141.86 12.5189 141.865 12.306 141.912 12.1008L143.588 1.28531C143.634 0.934612 143.789 0.60864 144.031 0.356009C144.263 0.12532 144.574 -0.00248849 144.897 0.000107628C145.195 -0.0259523 145.493 0.0505643 145.745 0.217603C145.983 0.411234 146.18 0.653622 146.322 0.929407L151.002 8.99651L152.138 1.40394C152.165 1.01064 152.337 0.642723 152.62 0.375782C152.766 0.242351 152.937 0.14036 153.122 0.0758349C153.307 0.0113099 153.503 -0.0144398 153.698 0.000107628C153.874 -0.0150741 154.05 0.0149454 154.212 0.0874476C154.373 0.15995 154.514 0.272645 154.622 0.415326C154.826 0.787677 154.888 1.22466 154.796 1.64121Z" fill="#04BDF5"/>
<path d="M162.133 13.8412C161.052 13.8673 159.982 13.623 159.013 13.1294C158.141 12.7016 157.416 12.0121 156.933 11.1522C156.41 10.1584 156.157 9.03826 156.202 7.9095C156.186 6.84106 156.349 5.7778 156.683 4.76571C156.98 3.84492 157.459 2.99685 158.089 2.27439C158.682 1.54838 159.425 0.967452 160.265 0.573975C161.173 0.183469 162.15 -0.0116819 163.134 0.000578276C164.219 -0.0226335 165.294 0.214327 166.274 0.692609C167.14 1.12844 167.864 1.81594 168.353 2.66984C168.867 3.67372 169.113 4.79929 169.066 5.93227C169.076 7.00531 168.92 8.07321 168.604 9.09584C168.307 10.0166 167.828 10.8647 167.198 11.5872C166.603 12.2915 165.858 12.8462 165.022 13.2085C164.115 13.6306 163.129 13.8464 162.133 13.8412ZM162.133 11.3301C162.892 11.3532 163.637 11.1167 164.251 10.6579C164.869 10.1421 165.33 9.45616 165.58 8.68062C165.924 7.80742 166.101 6.87422 166.1 5.93227C166.14 5.46395 166.089 4.99219 165.95 4.54422C165.811 4.09625 165.587 3.68096 165.291 3.32233C165.002 3.02673 164.655 2.79662 164.274 2.64679C163.892 2.49696 163.485 2.43072 163.077 2.45235C162.324 2.43516 161.587 2.67126 160.978 3.1246C160.376 3.61488 159.917 4.26434 159.649 5.00297C159.308 5.93062 159.151 6.91874 159.187 7.9095C159.121 8.85041 159.403 9.7821 159.976 10.5195C160.275 10.7938 160.626 11.0021 161.007 11.1314C161.388 11.2606 161.791 11.3081 162.191 11.2708L162.133 11.3301Z" fill="#04BDF5"/>
<path d="M57.4658 19.2985L55.8482 30.2326C55.836 30.4119 55.7894 30.587 55.7111 30.7478C55.6327 30.9085 55.5242 31.0518 55.3918 31.1694C55.2594 31.287 55.1056 31.3766 54.9394 31.433C54.7731 31.4894 54.5977 31.5115 54.4231 31.498C54.25 31.5075 54.077 31.4769 53.917 31.4084C53.757 31.34 53.614 31.2354 53.4987 31.1025C53.3958 30.948 53.3241 30.774 53.2877 30.5907C53.2514 30.4073 53.2511 30.2183 53.2868 30.0348L54.3268 23.1936L50.4752 28.8683C50.3442 29.0675 50.1735 29.236 49.9745 29.3626C49.7827 29.4792 49.5614 29.5343 49.339 29.5208C49.1051 29.5339 48.8739 29.4641 48.6842 29.323C48.494 29.1595 48.3481 28.9484 48.2605 28.7101L46.0844 23.2332L45.0059 30.2326C44.9962 30.411 44.9519 30.5857 44.8756 30.7463C44.7993 30.907 44.6926 31.0504 44.5617 31.1683C44.4308 31.2861 44.2783 31.3759 44.1132 31.4325C43.9481 31.4892 43.7737 31.5114 43.6001 31.498C43.4177 31.5153 43.2339 31.4885 43.0633 31.4198C42.8928 31.3512 42.7403 31.2425 42.6179 31.1025C42.5216 30.9452 42.4567 30.7698 42.427 30.5865C42.3972 30.4032 42.4032 30.2157 42.4446 30.0348L44.1393 19.081C44.1494 18.7331 44.2924 18.4032 44.5374 18.1627C44.7825 17.9222 45.1099 17.7904 45.4488 17.7958C45.7429 17.7785 46.0341 17.8619 46.2769 18.033C46.5202 18.2524 46.7056 18.5312 46.8162 18.8437L49.57 26.2188L54.7697 18.646C54.9372 18.3805 55.1611 18.1575 55.4245 17.9935C55.6981 17.8498 56.0034 17.7817 56.3103 17.7958C56.4883 17.7761 56.6683 17.7999 56.8356 17.8651C57.003 17.9304 57.1529 18.0354 57.2732 18.1714C57.3866 18.3319 57.4629 18.5168 57.4963 18.7121C57.5296 18.9074 57.5192 19.1079 57.4658 19.2985Z" fill="#04BDF5"/>
<path d="M70.5998 29.7572L67.403 19.0406C67.3203 18.687 67.1317 18.369 66.8638 18.1311C66.5841 17.9245 66.2451 17.82 65.9009 17.8345C65.5708 17.8207 65.2437 17.903 64.9572 18.0718C64.6816 18.2766 64.4518 18.5395 64.2832 18.8429L57.774 29.7967C57.6023 30.0505 57.527 30.3599 57.5622 30.6667C57.5814 30.7958 57.6275 30.9191 57.6972 31.0283C57.767 31.1375 57.8589 31.23 57.9666 31.2994C58.2128 31.463 58.5016 31.5458 58.7947 31.5367C59.0912 31.5454 59.3844 31.4701 59.642 31.3192C59.881 31.1586 60.0791 30.9417 60.2198 30.6865L61.4908 28.4522H67.5956L68.0578 30.2317C68.1235 30.6016 68.2905 30.9445 68.5392 31.2204C68.7842 31.4071 69.0771 31.5161 69.3818 31.5336C69.6864 31.5512 69.9894 31.4767 70.2532 31.3192C70.4608 31.1819 70.6117 30.9706 70.6769 30.726C70.7447 30.4024 70.7179 30.0653 70.5998 29.7572ZM62.7811 26.1586L65.6505 21.1365L66.9408 26.1586H62.7811Z" fill="#04BDF5"/>
<path d="M83.4257 24.2408C83.8743 23.4938 84.0955 22.6263 84.0612 21.7495C84.0837 21.2333 83.9933 20.7186 83.7966 20.243C83.6 19.7674 83.3022 19.3431 82.925 19.0011C81.9664 18.2692 80.7853 17.9117 79.5933 17.9927H75.7417C75.3318 17.9776 74.9298 18.1105 74.6055 18.3684C74.3034 18.6495 74.1174 19.0386 74.0855 19.4559L72.4871 29.7968C72.4338 30.0101 72.4234 30.2323 72.4566 30.4499C72.4897 30.6674 72.5656 30.8758 72.6797 31.0622C72.7906 31.2205 72.939 31.3472 73.1109 31.4302C73.2827 31.5133 73.4724 31.5499 73.6619 31.5368C74.0722 31.5554 74.4754 31.4221 74.7981 31.1611C75.09 30.8642 75.2736 30.4732 75.318 30.0538L75.8958 26.0994H77.4364C77.7803 26.0935 78.1194 26.1822 78.4186 26.3564C78.6834 26.5843 78.8775 26.8867 78.9771 27.2264L80.0748 30.1527C80.1845 30.5263 80.3831 30.8661 80.6525 31.1413C80.9216 31.3564 81.2553 31.4683 81.5962 31.4577C81.9266 31.476 82.255 31.3934 82.5398 31.2204C82.6854 31.0626 82.7796 30.8622 82.8094 30.647C82.8909 30.3228 82.8909 29.9826 82.8094 29.6584L82.1161 27.7998C81.9289 27.2533 81.6111 26.7638 81.1917 26.3762C81.0231 26.2207 80.827 26.0999 80.614 26.0203C80.997 25.9596 81.3718 25.8534 81.731 25.7039C82.4232 25.397 83.0124 24.8883 83.4257 24.2408ZM80.7103 23.5487C80.2072 23.9194 79.5952 24.1009 78.9771 24.0628H76.1654L76.7624 20.2863H79.1311C79.7144 20.2445 80.2953 20.397 80.7873 20.7213C80.972 20.8745 81.1176 21.0716 81.2115 21.2955C81.3055 21.5194 81.3449 21.7634 81.3265 22.0065C81.3394 22.2941 81.2909 22.5812 81.1845 22.8476C81.078 23.114 80.9162 23.3533 80.7103 23.5487Z" fill="#04BDF5"/>
<path d="M86.5069 31.6358C86.3057 31.6552 86.1029 31.6219 85.9177 31.5389C85.7324 31.4559 85.5707 31.326 85.4477 31.1613C85.3368 30.9734 85.2643 30.7644 85.2345 30.5468C85.2047 30.3293 85.2183 30.1078 85.2744 29.8959L86.8921 19.4165C86.9318 18.9957 87.1161 18.6032 87.412 18.3093C87.5607 18.1423 87.7424 18.0101 87.9451 17.9214C88.1477 17.8327 88.3665 17.7897 88.5868 17.7952C88.783 17.7786 88.9803 17.8114 89.1615 17.8906C89.3426 17.9699 89.5023 18.0932 89.6267 18.25C89.8346 18.6425 89.8963 19.0994 89.8 19.5352L88.1631 29.9947C88.133 30.4198 87.9554 30.8198 87.6624 31.1217C87.5152 31.2852 87.3364 31.4153 87.1374 31.5038C86.9385 31.5923 86.7237 31.6373 86.5069 31.6358Z" fill="#04BDF5"/>
<path d="M94.6338 22.8567C94.2851 23.6584 94.114 24.5295 94.1331 25.4073C94.0884 25.9128 94.1515 26.4222 94.3177 26.9002C94.484 27.3782 94.7495 27.8133 95.096 28.1754C95.842 28.8032 96.7904 29.1208 97.7536 29.0652C98.1863 29.0658 98.6181 29.0261 99.0438 28.9466C99.2854 28.906 99.5236 28.8465 99.7564 28.7686L100.142 26.1191H98.5239C98.2157 26.1306 97.912 26.0405 97.6573 25.8621C97.5542 25.7898 97.4703 25.6923 97.4131 25.5784C97.356 25.4645 97.3273 25.3377 97.3299 25.2096C97.3185 25.0393 97.3455 24.8686 97.409 24.7108C97.4725 24.553 97.5706 24.4124 97.6958 24.3001C97.9632 24.0819 98.2981 23.9696 98.6394 23.9837H101.49C101.66 23.9678 101.831 23.9916 101.991 24.0532C102.151 24.1148 102.296 24.2127 102.414 24.3396C102.52 24.4807 102.593 24.6454 102.626 24.8204C102.66 24.9955 102.653 25.1761 102.607 25.348L102.067 29.6584C102.03 29.9595 101.917 30.2456 101.74 30.4888C101.554 30.7425 101.289 30.9237 100.989 31.0029C100.426 31.1941 99.8449 31.3266 99.2557 31.3983C98.6189 31.5042 97.9749 31.5571 97.3299 31.5565C96.2272 31.5748 95.1347 31.3382 94.1331 30.8645C93.2268 30.443 92.4627 29.7549 91.9376 28.8872C91.3912 27.8862 91.1183 26.7522 91.1481 25.605C91.145 24.5569 91.3076 23.5152 91.6295 22.5206C91.9375 21.608 92.4297 20.7726 93.0739 20.0688C93.7273 19.3618 94.5223 18.8086 95.4041 18.4475C96.4031 18.0132 97.4775 17.7912 98.5624 17.795C99.2112 17.7954 99.8577 17.8751 100.488 18.0322C101.058 18.1695 101.608 18.3821 102.125 18.665C102.397 18.7947 102.615 19.0188 102.741 19.2977C102.849 19.5456 102.883 19.821 102.838 20.0886C102.789 20.3445 102.676 20.583 102.51 20.7806C102.36 20.987 102.14 21.1281 101.894 21.176C101.613 21.2403 101.319 21.1981 101.066 21.0574C100.667 20.8045 100.231 20.6176 99.7757 20.5038C99.3136 20.4013 98.8425 20.3483 98.3698 20.3456C97.5421 20.3235 96.728 20.5652 96.0396 21.0376C95.4184 21.5013 94.9323 22.1302 94.6338 22.8567Z" fill="#04BDF5"/>
<path d="M117.3 19.4362L115.644 30.2516C115.619 30.606 115.476 30.9408 115.24 31.2007C115.132 31.312 115.002 31.3993 114.86 31.4572C114.717 31.515 114.565 31.5421 114.412 31.5368C114.1 31.5543 113.79 31.4714 113.526 31.2996C113.267 31.1113 113.051 30.8686 112.89 30.5878L108.23 22.5602L107.055 30.1725C107.022 30.5542 106.858 30.9114 106.593 31.1809C106.458 31.3066 106.3 31.403 106.128 31.4641C105.956 31.5253 105.773 31.55 105.592 31.5368C105.409 31.5494 105.226 31.5164 105.058 31.4406C104.89 31.3649 104.743 31.2487 104.629 31.1018C104.409 30.743 104.333 30.3108 104.417 29.8957L106.112 19.0803C106.142 18.725 106.3 18.3939 106.554 18.151C106.787 17.9203 107.098 17.7925 107.421 17.7951C107.713 17.7689 108.005 17.8456 108.249 18.0126C108.488 18.2062 108.684 18.4486 108.827 18.7244L113.507 26.7717L114.681 19.1594C114.722 18.7659 114.9 18.4007 115.182 18.1312C115.474 17.8858 115.846 17.7654 116.222 17.7951C116.395 17.7796 116.569 17.8096 116.727 17.8823C116.885 17.9549 117.023 18.0678 117.127 18.2103C117.341 18.5793 117.403 19.0201 117.3 19.4362Z" fill="#04BDF5"/>
<path d="M124.657 31.6363C123.57 31.6601 122.494 31.4161 121.518 30.9245C120.653 30.4858 119.931 29.799 119.438 28.9473C118.924 27.9499 118.672 26.8324 118.706 25.7046C118.697 24.635 118.866 23.5717 119.207 22.5608C119.497 21.6412 119.969 20.7931 120.594 20.0695C121.204 19.3688 121.952 18.8093 122.789 18.4284C123.687 18.0191 124.657 17.8038 125.639 17.7957C126.73 17.7709 127.812 18.0078 128.797 18.4877C129.659 18.9238 130.376 19.6117 130.858 20.465C131.379 21.467 131.631 22.5926 131.59 23.7274C131.604 24.8022 131.441 25.8717 131.108 26.891C130.818 27.8106 130.346 28.6587 129.722 29.3823C129.116 30.083 128.366 30.6367 127.526 31.0036C126.625 31.4241 125.647 31.6399 124.657 31.6363ZM124.657 29.1253C125.41 29.1484 126.149 28.9117 126.756 28.453C127.385 27.9447 127.854 27.2568 128.104 26.4758C128.448 25.6026 128.625 24.6694 128.624 23.7274C128.664 23.2591 128.613 22.7873 128.474 22.3394C128.335 21.8914 128.111 21.4761 127.815 21.1175C127.524 20.8248 127.177 20.5966 126.796 20.447C126.415 20.2974 126.008 20.2295 125.601 20.2475C124.842 20.2303 124.099 20.4662 123.482 20.9197C122.867 21.437 122.406 22.1224 122.153 22.897C121.83 23.7813 121.673 24.7207 121.691 25.6651C121.622 26.6098 121.911 27.5454 122.5 28.275C122.796 28.5565 123.146 28.772 123.527 28.9081C123.908 29.0442 124.312 29.0979 124.715 29.0659L124.657 29.1253Z" fill="#04BDF5"/>
<path d="M182.951 32.2493V29.5405C182.951 29.4205 182.979 29.3022 183.033 29.1956C183.086 29.089 183.164 28.997 183.259 28.9276L197.606 18.2307C197.702 18.1613 197.779 18.0694 197.833 17.9628C197.887 17.8561 197.915 17.7378 197.915 17.6178C197.915 17.4978 197.887 17.3795 197.833 17.2728C197.779 17.1662 197.702 17.0743 197.606 17.0049L183.201 5.93236C183.124 5.85942 183.061 5.77091 183.018 5.67229C182.975 5.57367 182.952 5.46703 182.951 5.35897V2.5513C182.96 2.41997 183.002 2.29333 183.074 2.18405C183.145 2.07477 183.243 1.98668 183.358 1.92861C183.473 1.87055 183.601 1.84454 183.729 1.85319C183.857 1.86184 183.981 1.90484 184.087 1.9779L203.692 17.0049C203.787 17.0743 203.865 17.1662 203.919 17.2728C203.972 17.3795 204 17.4978 204 17.6178C204 17.7378 203.972 17.8561 203.919 17.9628C203.865 18.0694 203.787 18.1613 203.692 18.2307L184.087 32.8623C183.977 32.9304 183.851 32.9682 183.722 32.972C183.593 32.9757 183.465 32.9454 183.351 32.8838C183.237 32.8222 183.14 32.7315 183.07 32.6204C183 32.5092 182.959 32.3815 182.951 32.2493Z" fill="#04BDF5"/>
<path d="M21.1838 31.8341V29.1451C21.1838 29.0251 21.1559 28.9068 21.1023 28.8002C21.0487 28.6935 20.971 28.6016 20.8757 28.5322L6.43215 17.7958C6.33677 17.7264 6.25898 17.6345 6.20529 17.5278C6.1516 17.4212 6.12359 17.3029 6.12359 17.1828C6.12359 17.0628 6.1516 16.9445 6.20529 16.8379C6.25898 16.7312 6.33677 16.6393 6.43215 16.5699L20.7794 5.53696C20.8875 5.48286 20.9809 5.40224 21.0515 5.30223C21.122 5.20221 21.1675 5.0859 21.1838 4.96356V2.15589C21.182 2.01435 21.1424 1.87604 21.0692 1.75611C20.9959 1.63617 20.892 1.53924 20.7687 1.47594C20.6454 1.41264 20.5075 1.38541 20.3701 1.39722C20.2327 1.40904 20.1011 1.45946 19.9898 1.54295L0.28885 16.6095C0.20516 16.6833 0.138334 16.7751 0.093123 16.8784C0.047912 16.9817 0.0254265 17.094 0.0272649 17.2073C0.0291034 17.3205 0.0552208 17.432 0.10376 17.5337C0.1523 17.6354 0.222069 17.7249 0.308108 17.7958L19.9128 32.4273C20.0211 32.5344 20.1584 32.6057 20.3067 32.6318C20.4549 32.6579 20.6074 32.6377 20.7444 32.5737C20.8814 32.5098 20.9965 32.4052 21.0748 32.2733C21.1532 32.1414 21.1911 31.9884 21.1838 31.8341Z" fill="#04BDF5"/>
</g>
<defs>
<clipPath id="clip0_366_449">
<rect width="204" height="33" fill="white"/>
</clipPath>
</defs>
</svg>
