<svg width="24" height="25" viewBox="0 0 24 25" fill="none" xmlns="http://www.w3.org/2000/svg">
<mask id="mask0_395_320" style="mask-type:alpha" maskUnits="userSpaceOnUse" x="0" y="0" width="24" height="25">
<rect y="0.5" width="24" height="24" fill="#D9D9D9"/>
</mask>
<g mask="url(#mask0_395_320)">
<path d="M18 21.5L22 17.5L20.6 16.1L19 17.7V13.525H17V17.7L15.4 16.1L14 17.5L18 21.5ZM14 24.5V22.5H22V24.5H14ZM6 20.5C5.45 20.5 4.97917 20.3042 4.5875 19.9125C4.19583 19.5208 4 19.05 4 18.5V4.5C4 3.95 4.19583 3.47917 4.5875 3.0875C4.97917 2.69583 5.45 2.5 6 2.5H13L19 8.5V11.525H17V9.5H12V4.5H6V18.5H12V20.5H6Z" fill="white"/>
</g>
</svg>
