<svg width="25" height="24" viewBox="0 0 25 24" fill="none" xmlns="http://www.w3.org/2000/svg">
<g clip-path="url(#clip0_396_1211)">
<path fill-rule="evenodd" clip-rule="evenodd" d="M12.5103 0C5.59245 0 0 5.40833 0 12.0992C0 17.4475 3.58327 21.9748 8.55422 23.5771C9.17572 23.6976 9.40337 23.3168 9.40337 22.9965C9.40337 22.716 9.38288 21.7545 9.38288 20.7527C5.90281 21.474 5.17812 19.3104 5.17812 19.3104C4.61885 17.9082 3.79018 17.5478 3.79018 17.5478C2.65116 16.8066 3.87315 16.8066 3.87315 16.8066C5.13663 16.8868 5.79961 18.0486 5.79961 18.0486C6.9179 19.8913 8.7199 19.3707 9.44486 19.0501C9.54831 18.2688 9.87993 17.728 10.232 17.4276C7.45642 17.1471 4.53613 16.1055 4.53613 11.458C4.53613 10.1359 5.03292 9.05428 5.8201 8.21304C5.6959 7.91263 5.26083 6.67043 5.94455 5.00787C5.94455 5.00787 7.00086 4.6873 9.38263 6.24981C10.4023 5.98497 11.454 5.85024 12.5103 5.84911C13.5667 5.84911 14.6435 5.98948 15.6378 6.24981C18.0198 4.6873 19.0761 5.00787 19.0761 5.00787C19.7599 6.67043 19.3245 7.91263 19.2003 8.21304C20.0083 9.05428 20.4846 10.1359 20.4846 11.458C20.4846 16.1055 17.5643 17.1269 14.7679 17.4276C15.2237 17.8081 15.6171 18.5292 15.6171 19.6711C15.6171 21.2936 15.5966 22.5957 15.5966 22.9962C15.5966 23.3168 15.8245 23.6976 16.4457 23.5774C21.4167 21.9745 24.9999 17.4475 24.9999 12.0992C25.0204 5.40833 19.4075 0 12.5103 0Z" fill="white"/>
</g>
<defs>
<clipPath id="clip0_396_1211">
<rect width="25" height="24" fill="white"/>
</clipPath>
</defs>
</svg>
