<?xml version="1.0" encoding="UTF-8"?>
<svg xmlns="http://www.w3.org/2000/svg" xmlns:xlink="http://www.w3.org/1999/xlink" width="32px" height="32px" viewBox="0 0 32 32" version="1.1">
<g id="surface1">
<path style=" stroke:none;fill-rule:nonzero;fill:rgb(0%,0%,0%);fill-opacity:1;" d="M 0.0390625 14.414062 L 0.0390625 28.824219 L 14.488281 28.824219 L 14.546875 29.15625 C 14.582031 29.335938 14.613281 29.519531 14.621094 29.554688 C 14.636719 29.609375 13.824219 29.628906 10.652344 29.628906 L 6.667969 29.628906 L 6.339844 30.785156 C 6.160156 31.421875 6.019531 31.949219 6.023438 31.960938 C 6.03125 31.972656 10.515625 31.972656 15.988281 31.964844 L 25.941406 31.949219 L 25.65625 30.800781 L 25.367188 29.65625 L 21.308594 29.640625 C 17.675781 29.628906 17.25 29.617188 17.269531 29.542969 C 17.28125 29.488281 17.320312 29.3125 17.351562 29.140625 L 17.40625 28.824219 L 32.007812 28.824219 L 32.007812 0 L 0.0390625 0 Z M 30.515625 1.089844 C 30.710938 1.175781 30.886719 1.371094 31.019531 1.65625 L 31.128906 1.902344 L 31.128906 26.523438 L 31.019531 26.769531 C 30.886719 27.054688 30.710938 27.25 30.515625 27.335938 C 30.425781 27.371094 25.507812 27.390625 15.960938 27.390625 C -0.136719 27.390625 1.347656 27.433594 1.054688 26.972656 C 0.761719 26.515625 0.785156 27.632812 0.785156 14.21875 C 0.785156 3.566406 0.792969 2.167969 0.839844 1.941406 C 0.910156 1.628906 1.15625 1.238281 1.363281 1.125 C 1.492188 1.046875 3.378906 1.039062 15.949219 1.039062 C 25.511719 1.03125 30.425781 1.054688 30.515625 1.089844 Z M 30.515625 1.089844 "/>
<path style=" stroke:none;fill-rule:nonzero;fill:rgb(0%,0%,0%);fill-opacity:1;" d="M 1.046875 6.6875 L 1.046875 11.253906 L 1.148438 11.113281 C 1.753906 10.261719 1.804688 10.21875 1.941406 10.429688 C 2.0625 10.613281 2.066406 10.601562 1.707031 11.105469 L 1.53125 11.347656 L 1.777344 11.707031 C 2.003906 12.035156 2.023438 12.082031 1.984375 12.195312 C 1.960938 12.261719 1.898438 12.339844 1.847656 12.355469 C 1.746094 12.394531 1.699219 12.347656 1.3125 11.8125 L 1.046875 11.449219 L 1.046875 26.246094 L 30.960938 26.246094 L 30.960938 16.738281 L 30.859375 16.886719 C 30.546875 17.339844 30.242188 17.707031 30.179688 17.707031 C 30.101562 17.707031 29.992188 17.535156 29.992188 17.414062 C 29.992188 17.371094 30.09375 17.1875 30.222656 17.007812 L 30.457031 16.675781 L 30.226562 16.355469 C 29.976562 16.015625 29.945312 15.898438 30.066406 15.730469 C 30.175781 15.574219 30.273438 15.652344 30.636719 16.167969 L 30.960938 16.628906 L 30.960938 2.121094 L 1.046875 2.121094 Z M 2.089844 2.433594 C 2.089844 2.515625 2.085938 2.578125 2.078125 2.578125 C 2.070312 2.578125 2.054688 2.515625 2.046875 2.433594 C 2.035156 2.355469 2.042969 2.292969 2.058594 2.292969 C 2.078125 2.292969 2.089844 2.355469 2.089844 2.433594 Z M 3.394531 9.746094 C 3.433594 9.84375 3.519531 10.144531 3.585938 10.40625 C 3.652344 10.675781 3.722656 10.871094 3.738281 10.847656 C 3.753906 10.824219 3.816406 10.585938 3.878906 10.320312 C 4.054688 9.582031 4.0625 9.570312 4.371094 9.570312 C 4.75 9.570312 4.742188 9.535156 4.742188 11.15625 C 4.742188 12.628906 4.734375 12.664062 4.503906 12.664062 C 4.300781 12.664062 4.296875 12.625 4.296875 11.507812 C 4.296875 10.945312 4.28125 10.488281 4.265625 10.488281 C 4.25 10.488281 4.167969 10.761719 4.089844 11.101562 C 3.894531 11.914062 3.757812 12.125 3.59375 11.875 C 3.550781 11.8125 3.445312 11.472656 3.359375 11.113281 L 3.191406 10.457031 L 3.175781 11.507812 C 3.15625 12.648438 3.152344 12.664062 2.933594 12.664062 C 2.867188 12.664062 2.796875 12.636719 2.769531 12.597656 C 2.738281 12.542969 2.726562 12.136719 2.726562 11.105469 C 2.726562 9.476562 2.703125 9.574219 3.09375 9.570312 C 3.3125 9.570312 3.328125 9.582031 3.394531 9.746094 Z M 9.433594 9.714844 C 9.5625 10.015625 9.359375 10.347656 9.125 10.222656 C 9.039062 10.175781 9.015625 10.132812 9.007812 9.941406 C 8.992188 9.679688 9.0625 9.570312 9.25 9.570312 C 9.339844 9.570312 9.390625 9.609375 9.433594 9.714844 Z M 13.355469 9.714844 C 13.484375 10.015625 13.28125 10.347656 13.046875 10.222656 C 12.960938 10.175781 12.9375 10.132812 12.929688 9.941406 C 12.914062 9.679688 12.984375 9.570312 13.171875 9.570312 C 13.261719 9.570312 13.3125 9.609375 13.355469 9.714844 Z M 14.507812 9.695312 C 14.554688 9.804688 14.566406 10.039062 14.566406 11.117188 C 14.566406 12.578125 14.550781 12.664062 14.324219 12.664062 C 14.09375 12.664062 14.082031 12.578125 14.082031 11.117188 C 14.082031 9.65625 14.09375 9.570312 14.324219 9.570312 C 14.414062 9.570312 14.46875 9.609375 14.507812 9.695312 Z M 15.671875 9.714844 C 15.796875 10.015625 15.597656 10.347656 15.363281 10.222656 C 15.277344 10.175781 15.253906 10.132812 15.246094 9.941406 C 15.230469 9.679688 15.300781 9.570312 15.488281 9.570312 C 15.578125 9.570312 15.625 9.609375 15.671875 9.714844 Z M 6.074219 10.566406 L 6.175781 10.699219 L 6.25 10.566406 C 6.328125 10.414062 6.484375 10.382812 6.597656 10.511719 C 6.660156 10.585938 6.667969 10.683594 6.679688 11.488281 C 6.691406 12.53125 6.667969 12.664062 6.441406 12.664062 C 6.324219 12.664062 6.199219 12.542969 6.199219 12.425781 C 6.199219 12.394531 6.148438 12.433594 6.085938 12.515625 C 5.886719 12.773438 5.554688 12.675781 5.433594 12.320312 C 5.355469 12.085938 5.355469 11.007812 5.433594 10.773438 C 5.550781 10.425781 5.886719 10.320312 6.074219 10.566406 Z M 7.53125 10.585938 C 7.585938 10.675781 7.652344 10.800781 7.683594 10.871094 C 7.714844 10.945312 7.75 11.003906 7.765625 11.003906 C 7.78125 11.003906 7.847656 10.886719 7.917969 10.746094 C 7.984375 10.601562 8.074219 10.476562 8.113281 10.453125 C 8.210938 10.40625 8.320312 10.476562 8.367188 10.609375 C 8.414062 10.738281 8.382812 10.847656 8.171875 11.25 C 8.09375 11.402344 8.042969 11.558594 8.054688 11.59375 C 8.070312 11.632812 8.132812 11.765625 8.199219 11.890625 C 8.378906 12.234375 8.414062 12.359375 8.367188 12.492188 C 8.34375 12.554688 8.28125 12.625 8.226562 12.640625 C 8.136719 12.675781 8.105469 12.640625 7.945312 12.371094 L 7.765625 12.0625 L 7.691406 12.207031 C 7.429688 12.710938 7.351562 12.769531 7.207031 12.550781 C 7.113281 12.40625 7.144531 12.269531 7.355469 11.851562 L 7.5 11.554688 L 7.34375 11.210938 C 7.132812 10.75 7.117188 10.683594 7.207031 10.542969 C 7.3125 10.382812 7.417969 10.402344 7.53125 10.585938 Z M 9.378906 10.539062 C 9.460938 10.636719 9.464844 10.695312 9.480469 11.382812 C 9.496094 12.257812 9.457031 12.589844 9.320312 12.640625 C 9.019531 12.757812 8.949219 12.492188 8.972656 11.382812 C 8.984375 10.695312 8.988281 10.636719 9.070312 10.539062 C 9.121094 10.476562 9.1875 10.429688 9.226562 10.429688 C 9.261719 10.429688 9.328125 10.476562 9.378906 10.539062 Z M 10.589844 10.566406 C 10.648438 10.703125 10.652344 10.703125 10.71875 10.601562 C 10.859375 10.382812 11.171875 10.382812 11.292969 10.597656 C 11.359375 10.703125 11.363281 10.703125 11.492188 10.566406 C 11.589844 10.46875 11.675781 10.429688 11.808594 10.429688 C 11.960938 10.429688 12.011719 10.457031 12.128906 10.625 L 12.269531 10.820312 L 12.28125 11.605469 C 12.296875 12.523438 12.265625 12.664062 12.042969 12.664062 C 11.839844 12.664062 11.800781 12.527344 11.800781 11.746094 C 11.800781 11.058594 11.78125 10.945312 11.640625 10.945312 C 11.53125 10.945312 11.464844 11.277344 11.464844 11.890625 C 11.464844 12.5 11.414062 12.664062 11.214844 12.664062 C 11.015625 12.664062 10.980469 12.542969 10.980469 11.804688 C 10.980469 11.09375 10.941406 10.917969 10.8125 10.957031 C 10.691406 10.992188 10.644531 11.226562 10.644531 11.757812 C 10.644531 12.257812 10.601562 12.539062 10.519531 12.617188 C 10.445312 12.695312 10.296875 12.671875 10.226562 12.566406 C 10.167969 12.488281 10.160156 12.371094 10.160156 11.542969 C 10.160156 10.5 10.171875 10.429688 10.402344 10.429688 C 10.5 10.429688 10.546875 10.464844 10.589844 10.566406 Z M 13.300781 10.539062 C 13.382812 10.636719 13.386719 10.695312 13.402344 11.382812 C 13.421875 12.492188 13.351562 12.757812 13.054688 12.640625 C 12.914062 12.589844 12.875 12.257812 12.894531 11.382812 C 12.90625 10.695312 12.910156 10.636719 12.992188 10.539062 C 13.042969 10.476562 13.109375 10.429688 13.148438 10.429688 C 13.183594 10.429688 13.25 10.476562 13.300781 10.539062 Z M 15.617188 10.539062 C 15.699219 10.636719 15.703125 10.695312 15.714844 11.382812 C 15.738281 12.492188 15.667969 12.757812 15.367188 12.640625 C 15.230469 12.589844 15.191406 12.257812 15.207031 11.382812 C 15.222656 10.695312 15.226562 10.636719 15.308594 10.539062 C 15.359375 10.476562 15.425781 10.429688 15.460938 10.429688 C 15.5 10.429688 15.566406 10.476562 15.617188 10.539062 Z M 17.015625 10.566406 L 17.121094 10.699219 L 17.191406 10.566406 C 17.269531 10.414062 17.425781 10.382812 17.539062 10.511719 C 17.601562 10.585938 17.609375 10.683594 17.621094 11.488281 C 17.636719 12.53125 17.609375 12.664062 17.386719 12.664062 C 17.265625 12.664062 17.144531 12.542969 17.144531 12.425781 C 17.144531 12.394531 17.089844 12.433594 17.027344 12.515625 C 16.828125 12.773438 16.496094 12.675781 16.378906 12.320312 C 16.296875 12.085938 16.296875 11.007812 16.378906 10.773438 C 16.492188 10.425781 16.828125 10.320312 17.015625 10.566406 Z M 18.636719 10.542969 L 18.710938 10.660156 L 18.820312 10.539062 C 18.980469 10.355469 19.238281 10.414062 19.398438 10.652344 L 19.515625 10.832031 L 19.527344 11.609375 C 19.539062 12.523438 19.507812 12.664062 19.289062 12.664062 C 19.085938 12.664062 19.046875 12.523438 19.046875 11.777344 C 19.046875 11.101562 19.011719 10.917969 18.878906 10.957031 C 18.761719 10.992188 18.710938 11.226562 18.710938 11.792969 C 18.710938 12.304688 18.679688 12.527344 18.585938 12.617188 C 18.511719 12.695312 18.363281 12.671875 18.292969 12.566406 C 18.234375 12.488281 18.226562 12.371094 18.226562 11.542969 C 18.226562 10.773438 18.238281 10.597656 18.285156 10.523438 C 18.367188 10.394531 18.546875 10.40625 18.636719 10.542969 Z M 21.121094 10.5625 C 21.332031 10.746094 21.402344 10.984375 21.402344 11.546875 C 21.402344 12.109375 21.332031 12.347656 21.121094 12.53125 C 20.914062 12.710938 20.582031 12.710938 20.355469 12.53125 C 20.125 12.359375 20.054688 12.132812 20.054688 11.546875 C 20.054688 10.960938 20.125 10.734375 20.355469 10.554688 C 20.582031 10.382812 20.914062 10.382812 21.121094 10.5625 Z M 17.921875 15.078125 C 17.960938 15.175781 18.046875 15.472656 18.113281 15.738281 C 18.179688 16.003906 18.253906 16.199219 18.265625 16.175781 C 18.28125 16.15625 18.34375 15.914062 18.410156 15.652344 C 18.585938 14.910156 18.59375 14.898438 18.898438 14.898438 C 19.277344 14.898438 19.273438 14.867188 19.273438 16.488281 C 19.273438 17.960938 19.265625 17.996094 19.03125 17.996094 C 18.832031 17.996094 18.824219 17.953125 18.824219 16.835938 C 18.824219 16.273438 18.808594 15.816406 18.792969 15.816406 C 18.777344 15.816406 18.695312 16.089844 18.617188 16.429688 C 18.425781 17.242188 18.285156 17.457031 18.121094 17.203125 C 18.082031 17.140625 17.976562 16.800781 17.886719 16.441406 L 17.722656 15.789062 L 17.703125 16.835938 C 17.683594 17.976562 17.679688 17.996094 17.460938 17.996094 C 17.398438 17.996094 17.324219 17.964844 17.300781 17.925781 C 17.265625 17.875 17.253906 17.46875 17.253906 16.433594 C 17.253906 14.808594 17.234375 14.90625 17.621094 14.898438 C 17.839844 14.898438 17.855469 14.910156 17.921875 15.078125 Z M 23.703125 15.042969 C 23.828125 15.347656 23.625 15.679688 23.390625 15.554688 C 23.304688 15.507812 23.28125 15.460938 23.277344 15.273438 C 23.261719 15.007812 23.332031 14.898438 23.519531 14.898438 C 23.609375 14.898438 23.65625 14.941406 23.703125 15.042969 Z M 20.5625 15.898438 L 20.667969 16.027344 L 20.738281 15.898438 C 20.816406 15.742188 20.976562 15.714844 21.085938 15.839844 C 21.148438 15.914062 21.15625 16.011719 21.167969 16.820312 C 21.183594 17.863281 21.15625 17.996094 20.933594 17.996094 C 20.8125 17.996094 20.691406 17.875 20.691406 17.753906 C 20.691406 17.726562 20.636719 17.765625 20.574219 17.84375 C 20.378906 18.101562 20.042969 18.003906 19.925781 17.652344 C 19.847656 17.414062 19.847656 16.339844 19.925781 16.101562 C 20.042969 15.753906 20.378906 15.652344 20.5625 15.898438 Z M 22.144531 15.832031 C 22.167969 15.878906 22.195312 16 22.207031 16.101562 L 22.234375 16.285156 L 22.28125 16.113281 C 22.382812 15.742188 22.6875 15.640625 22.761719 15.949219 C 22.820312 16.207031 22.726562 16.40625 22.519531 16.457031 C 22.269531 16.527344 22.246094 16.597656 22.230469 17.238281 C 22.214844 17.855469 22.171875 17.996094 21.996094 17.996094 C 21.792969 17.996094 21.773438 17.910156 21.773438 16.875 C 21.773438 16.101562 21.785156 15.925781 21.832031 15.851562 C 21.90625 15.738281 22.085938 15.730469 22.144531 15.832031 Z M 23.644531 15.867188 C 23.726562 15.964844 23.730469 16.023438 23.746094 16.710938 C 23.765625 17.585938 23.722656 17.917969 23.585938 17.972656 C 23.285156 18.085938 23.214844 17.824219 23.238281 16.710938 C 23.253906 16.023438 23.257812 15.964844 23.339844 15.867188 C 23.386719 15.804688 23.453125 15.757812 23.492188 15.757812 C 23.53125 15.757812 23.597656 15.804688 23.644531 15.867188 Z M 25.078125 15.898438 L 25.167969 16.035156 L 25.230469 15.898438 C 25.300781 15.730469 25.488281 15.707031 25.589844 15.855469 C 25.652344 15.941406 25.660156 16.058594 25.660156 17.117188 C 25.660156 18.464844 25.640625 18.5625 25.386719 18.746094 C 25.210938 18.867188 24.828125 18.894531 24.660156 18.789062 C 24.503906 18.699219 24.386719 18.511719 24.386719 18.332031 C 24.386719 18.160156 24.445312 18.109375 24.636719 18.109375 C 24.722656 18.109375 24.789062 18.148438 24.84375 18.253906 C 24.929688 18.40625 25.058594 18.433594 25.128906 18.328125 C 25.152344 18.285156 25.171875 18.136719 25.171875 17.984375 L 25.171875 17.714844 L 25.074219 17.863281 C 24.992188 17.988281 24.957031 18.003906 24.792969 17.984375 C 24.644531 17.960938 24.578125 17.914062 24.488281 17.769531 L 24.371094 17.59375 L 24.371094 16.882812 C 24.371094 16.199219 24.375 16.160156 24.464844 16.015625 C 24.640625 15.71875 24.929688 15.667969 25.078125 15.898438 Z M 26.667969 15.875 L 26.742188 15.988281 L 26.851562 15.867188 C 27.011719 15.683594 27.269531 15.742188 27.429688 15.984375 L 27.542969 16.160156 L 27.554688 16.941406 C 27.570312 17.851562 27.535156 17.996094 27.320312 17.996094 C 27.113281 17.996094 27.078125 17.851562 27.078125 17.105469 C 27.078125 16.429688 27.039062 16.246094 26.910156 16.285156 C 26.789062 16.320312 26.742188 16.554688 26.742188 17.125 C 26.742188 17.632812 26.707031 17.855469 26.613281 17.949219 C 26.542969 18.023438 26.394531 18 26.324219 17.898438 C 26.261719 17.816406 26.253906 17.703125 26.253906 16.871094 C 26.253906 16.101562 26.265625 15.925781 26.316406 15.851562 C 26.398438 15.726562 26.578125 15.738281 26.667969 15.875 Z M 29.148438 15.890625 C 29.363281 16.074219 29.429688 16.316406 29.429688 16.875 C 29.429688 17.4375 29.363281 17.679688 29.148438 17.863281 C 28.945312 18.039062 28.613281 18.039062 28.382812 17.863281 C 28.152344 17.691406 28.085938 17.460938 28.085938 16.875 C 28.085938 16.292969 28.152344 16.0625 28.382812 15.886719 C 28.613281 15.714844 28.945312 15.714844 29.148438 15.890625 Z M 11.933594 21.488281 C 12.003906 21.582031 12.007812 21.855469 11.9375 21.941406 C 11.90625 21.984375 11.824219 22.027344 11.75 22.046875 C 11.621094 22.074219 11.617188 22.089844 11.617188 22.304688 C 11.617188 22.488281 11.605469 22.527344 11.550781 22.511719 C 11.496094 22.492188 11.484375 22.414062 11.472656 22.011719 C 11.457031 21.371094 11.460938 21.351562 11.691406 21.386719 C 11.789062 21.402344 11.898438 21.449219 11.933594 21.488281 Z M 17.269531 21.46875 C 17.300781 21.59375 17.296875 22.367188 17.261719 22.441406 C 17.234375 22.511719 16.925781 22.515625 16.851562 22.441406 C 16.824219 22.417969 16.808594 22.28125 16.808594 22.121094 C 16.808594 21.898438 16.820312 21.824219 16.882812 21.777344 C 16.925781 21.742188 16.992188 21.730469 17.03125 21.746094 C 17.09375 21.777344 17.105469 21.757812 17.105469 21.617188 C 17.105469 21.523438 17.117188 21.433594 17.132812 21.414062 C 17.171875 21.347656 17.246094 21.375 17.269531 21.46875 Z M 19.273438 21.5 C 19.289062 21.574219 19.328125 21.746094 19.351562 21.890625 C 19.398438 22.175781 19.402344 22.167969 19.496094 21.617188 C 19.558594 21.242188 19.648438 21.304688 19.726562 21.777344 C 19.761719 21.984375 19.789062 22.136719 19.792969 22.121094 C 19.796875 22.101562 19.828125 21.9375 19.863281 21.746094 C 19.90625 21.519531 19.949219 21.398438 19.992188 21.386719 C 20.078125 21.359375 20.070312 21.519531 19.964844 22.0625 C 19.894531 22.445312 19.875 22.492188 19.792969 22.492188 C 19.714844 22.492188 19.695312 22.445312 19.648438 22.207031 L 19.597656 21.917969 L 19.535156 22.207031 C 19.488281 22.445312 19.460938 22.492188 19.386719 22.492188 C 19.304688 22.492188 19.285156 22.445312 19.207031 22.003906 C 19.160156 21.738281 19.128906 21.484375 19.140625 21.445312 C 19.167969 21.335938 19.234375 21.363281 19.273438 21.5 Z M 21.042969 21.46875 C 21.054688 21.519531 21.0625 21.605469 21.0625 21.65625 C 21.0625 21.738281 21.085938 21.753906 21.148438 21.738281 C 21.277344 21.695312 21.363281 21.855469 21.363281 22.121094 C 21.363281 22.425781 21.289062 22.515625 21.070312 22.503906 L 20.894531 22.492188 L 20.886719 22.011719 C 20.878906 21.746094 20.882812 21.496094 20.894531 21.449219 C 20.917969 21.347656 21.015625 21.359375 21.042969 21.46875 Z M 12.289062 21.816406 C 12.289062 21.902344 12.292969 21.902344 12.355469 21.816406 C 12.441406 21.695312 12.511719 21.691406 12.511719 21.804688 C 12.511719 21.855469 12.46875 21.917969 12.417969 21.949219 C 12.34375 21.988281 12.324219 22.046875 12.324219 22.1875 C 12.324219 22.429688 12.277344 22.550781 12.199219 22.503906 C 12.152344 22.476562 12.136719 22.390625 12.136719 22.132812 C 12.136719 21.949219 12.148438 21.777344 12.164062 21.757812 C 12.210938 21.683594 12.289062 21.71875 12.289062 21.816406 Z M 13.070312 21.832031 C 13.167969 21.984375 13.167969 22.257812 13.066406 22.414062 C 13.003906 22.511719 12.960938 22.527344 12.855469 22.5 C 12.785156 22.480469 12.710938 22.433594 12.691406 22.394531 C 12.652344 22.304688 12.652344 21.941406 12.691406 21.855469 C 12.761719 21.695312 12.972656 21.679688 13.070312 21.832031 Z M 13.773438 22.21875 C 13.785156 22.664062 13.78125 22.695312 13.6875 22.785156 C 13.578125 22.894531 13.351562 22.855469 13.320312 22.714844 C 13.292969 22.609375 13.398438 22.539062 13.457031 22.628906 C 13.519531 22.726562 13.59375 22.703125 13.59375 22.585938 C 13.59375 22.503906 13.574219 22.480469 13.523438 22.503906 C 13.488281 22.523438 13.417969 22.503906 13.375 22.46875 C 13.3125 22.414062 13.296875 22.347656 13.296875 22.121094 C 13.296875 21.789062 13.347656 21.71875 13.59375 21.738281 L 13.761719 21.746094 Z M 14.144531 21.8125 C 14.164062 21.898438 14.171875 21.898438 14.199219 21.8125 C 14.246094 21.683594 14.339844 21.695312 14.339844 21.828125 C 14.339844 21.902344 14.3125 21.949219 14.257812 21.960938 C 14.1875 21.972656 14.171875 22.023438 14.15625 22.234375 C 14.140625 22.417969 14.117188 22.5 14.074219 22.511719 C 14.011719 22.527344 14.003906 22.480469 14.003906 22.125 C 14.003906 21.800781 14.015625 21.71875 14.0625 21.71875 C 14.09375 21.71875 14.128906 21.757812 14.144531 21.8125 Z M 14.945312 21.804688 C 14.960938 21.832031 14.976562 21.976562 14.976562 22.121094 C 14.976562 22.261719 14.960938 22.40625 14.945312 22.441406 C 14.917969 22.511719 14.609375 22.515625 14.535156 22.441406 C 14.464844 22.378906 14.476562 21.851562 14.550781 21.789062 C 14.632812 21.71875 14.914062 21.726562 14.945312 21.804688 Z M 15.902344 21.792969 C 15.972656 21.863281 15.960938 22.457031 15.890625 22.503906 C 15.804688 22.550781 15.789062 22.503906 15.769531 22.175781 C 15.746094 21.8125 15.671875 21.828125 15.65625 22.199219 C 15.648438 22.378906 15.625 22.480469 15.585938 22.503906 C 15.507812 22.550781 15.460938 22.425781 15.460938 22.132812 C 15.460938 21.78125 15.371094 21.84375 15.351562 22.210938 C 15.335938 22.445312 15.320312 22.492188 15.257812 22.492188 C 15.191406 22.492188 15.183594 22.445312 15.171875 22.183594 C 15.164062 22.015625 15.167969 21.84375 15.175781 21.804688 C 15.195312 21.730469 15.820312 21.71875 15.902344 21.792969 Z M 16.601562 22.121094 L 16.601562 22.492188 L 16.425781 22.503906 C 16.28125 22.515625 16.238281 22.492188 16.191406 22.390625 C 16.121094 22.234375 16.121094 22.003906 16.191406 21.851562 C 16.238281 21.746094 16.28125 21.726562 16.425781 21.738281 L 16.601562 21.746094 Z M 17.898438 21.84375 C 17.914062 21.886719 17.925781 22.011719 17.925781 22.121094 C 17.925781 22.390625 17.890625 22.464844 17.734375 22.5 C 17.570312 22.542969 17.441406 22.378906 17.441406 22.121094 C 17.441406 21.863281 17.570312 21.695312 17.734375 21.742188 C 17.804688 21.757812 17.878906 21.804688 17.898438 21.84375 Z M 18.289062 21.8125 C 18.308594 21.898438 18.316406 21.898438 18.34375 21.8125 C 18.390625 21.683594 18.488281 21.695312 18.488281 21.828125 C 18.488281 21.902344 18.457031 21.949219 18.40625 21.960938 C 18.335938 21.972656 18.316406 22.023438 18.300781 22.234375 C 18.285156 22.417969 18.261719 22.5 18.21875 22.511719 C 18.160156 22.527344 18.152344 22.480469 18.152344 22.125 C 18.152344 21.800781 18.164062 21.71875 18.207031 21.71875 C 18.242188 21.71875 18.273438 21.757812 18.289062 21.8125 Z M 20.621094 21.839844 C 20.738281 22.023438 20.699219 22.144531 20.511719 22.167969 C 20.355469 22.183594 20.300781 22.261719 20.414062 22.332031 C 20.445312 22.347656 20.488281 22.339844 20.515625 22.296875 C 20.574219 22.207031 20.652344 22.21875 20.652344 22.320312 C 20.652344 22.503906 20.386719 22.585938 20.261719 22.441406 C 20.164062 22.332031 20.164062 21.902344 20.265625 21.792969 C 20.363281 21.683594 20.53125 21.703125 20.621094 21.839844 Z M 20.621094 21.839844 "/>
<path style=" stroke:none;fill-rule:nonzero;fill:rgb(0%,0%,0%);fill-opacity:1;" d="M 5.890625 10.984375 C 5.84375 11.046875 5.859375 12.082031 5.90625 12.121094 C 5.921875 12.144531 5.984375 12.144531 6.03125 12.125 C 6.203125 12.058594 6.25 11.300781 6.097656 11.046875 C 6.039062 10.945312 5.933594 10.910156 5.890625 10.984375 Z M 5.890625 10.984375 "/>
<path style=" stroke:none;fill-rule:nonzero;fill:rgb(0%,0%,0%);fill-opacity:1;" d="M 16.832031 10.984375 C 16.789062 11.046875 16.804688 12.082031 16.847656 12.121094 C 16.867188 12.144531 16.925781 12.144531 16.976562 12.125 C 17.148438 12.058594 17.191406 11.300781 17.042969 11.046875 C 16.980469 10.945312 16.878906 10.910156 16.832031 10.984375 Z M 16.832031 10.984375 "/>
<path style=" stroke:none;fill-rule:nonzero;fill:rgb(0%,0%,0%);fill-opacity:1;" d="M 20.59375 11.089844 C 20.550781 11.199219 20.539062 11.328125 20.550781 11.660156 C 20.5625 12.113281 20.59375 12.207031 20.75 12.207031 C 20.886719 12.207031 20.914062 12.089844 20.914062 11.574219 C 20.914062 11.265625 20.894531 11.054688 20.871094 11.015625 C 20.796875 10.898438 20.660156 10.933594 20.59375 11.089844 Z M 20.59375 11.089844 "/>
<path style=" stroke:none;fill-rule:nonzero;fill:rgb(0%,0%,0%);fill-opacity:1;" d="M 20.382812 16.316406 C 20.335938 16.378906 20.351562 17.410156 20.394531 17.449219 C 20.414062 17.472656 20.472656 17.472656 20.523438 17.457031 C 20.695312 17.386719 20.738281 16.628906 20.589844 16.378906 C 20.53125 16.273438 20.425781 16.242188 20.382812 16.316406 Z M 20.382812 16.316406 "/>
<path style=" stroke:none;fill-rule:nonzero;fill:rgb(0%,0%,0%);fill-opacity:1;" d="M 24.875 16.382812 C 24.816406 16.542969 24.824219 17.265625 24.886719 17.386719 C 24.953125 17.523438 25.0625 17.484375 25.125 17.304688 C 25.191406 17.101562 25.183594 16.554688 25.113281 16.402344 C 25.042969 16.246094 24.925781 16.234375 24.875 16.382812 Z M 24.875 16.382812 "/>
<path style=" stroke:none;fill-rule:nonzero;fill:rgb(0%,0%,0%);fill-opacity:1;" d="M 28.625 16.417969 C 28.578125 16.527344 28.566406 16.660156 28.578125 16.992188 C 28.59375 17.445312 28.625 17.535156 28.78125 17.535156 C 28.914062 17.535156 28.945312 17.421875 28.945312 16.90625 C 28.945312 16.597656 28.925781 16.382812 28.898438 16.34375 C 28.824219 16.230469 28.691406 16.261719 28.625 16.417969 Z M 28.625 16.417969 "/>
<path style=" stroke:none;fill-rule:nonzero;fill:rgb(0%,0%,0%);fill-opacity:1;" d="M 11.617188 21.71875 C 11.617188 21.875 11.625 21.898438 11.703125 21.878906 C 11.761719 21.867188 11.785156 21.824219 11.785156 21.71875 C 11.785156 21.617188 11.761719 21.570312 11.703125 21.558594 C 11.625 21.542969 11.617188 21.566406 11.617188 21.71875 Z M 11.617188 21.71875 "/>
<path style=" stroke:none;fill-rule:nonzero;fill:rgb(0%,0%,0%);fill-opacity:1;" d="M 16.992188 22.121094 C 16.992188 22.285156 17.007812 22.347656 17.042969 22.332031 C 17.0625 22.320312 17.085938 22.222656 17.085938 22.121094 C 17.085938 22.015625 17.0625 21.917969 17.042969 21.902344 C 17.007812 21.890625 16.992188 21.953125 16.992188 22.121094 Z M 16.992188 22.121094 "/>
<path style=" stroke:none;fill-rule:nonzero;fill:rgb(0%,0%,0%);fill-opacity:1;" d="M 21.0625 22.121094 C 21.0625 22.285156 21.078125 22.347656 21.121094 22.347656 C 21.160156 22.347656 21.175781 22.285156 21.175781 22.121094 C 21.175781 21.953125 21.160156 21.890625 21.121094 21.890625 C 21.078125 21.890625 21.0625 21.953125 21.0625 22.121094 Z M 21.0625 22.121094 "/>
<path style=" stroke:none;fill-rule:nonzero;fill:rgb(0%,0%,0%);fill-opacity:1;" d="M 12.824219 21.972656 C 12.789062 22.113281 12.824219 22.320312 12.894531 22.339844 C 12.949219 22.355469 12.960938 22.316406 12.960938 22.125 C 12.960938 21.953125 12.945312 21.890625 12.902344 21.890625 C 12.871094 21.890625 12.835938 21.925781 12.824219 21.972656 Z M 12.824219 21.972656 "/>
<path style=" stroke:none;fill-rule:nonzero;fill:rgb(0%,0%,0%);fill-opacity:1;" d="M 13.484375 22.121094 C 13.484375 22.285156 13.496094 22.347656 13.53125 22.332031 C 13.554688 22.320312 13.574219 22.222656 13.574219 22.121094 C 13.574219 22.015625 13.554688 21.917969 13.53125 21.902344 C 13.496094 21.890625 13.484375 21.953125 13.484375 22.121094 Z M 13.484375 22.121094 "/>
<path style=" stroke:none;fill-rule:nonzero;fill:rgb(0%,0%,0%);fill-opacity:1;" d="M 14.679688 22.121094 C 14.679688 22.285156 14.691406 22.347656 14.726562 22.332031 C 14.75 22.320312 14.769531 22.222656 14.769531 22.121094 C 14.769531 22.015625 14.75 21.917969 14.726562 21.902344 C 14.691406 21.890625 14.679688 21.953125 14.679688 22.121094 Z M 14.679688 22.121094 "/>
<path style=" stroke:none;fill-rule:nonzero;fill:rgb(0%,0%,0%);fill-opacity:1;" d="M 16.320312 22.121094 C 16.320312 22.378906 16.410156 22.441406 16.449219 22.210938 C 16.472656 22.039062 16.441406 21.890625 16.375 21.890625 C 16.335938 21.890625 16.320312 21.960938 16.320312 22.121094 Z M 16.320312 22.121094 "/>
<path style=" stroke:none;fill-rule:nonzero;fill:rgb(0%,0%,0%);fill-opacity:1;" d="M 17.628906 22.121094 C 17.628906 22.316406 17.640625 22.355469 17.695312 22.339844 C 17.742188 22.328125 17.757812 22.261719 17.757812 22.121094 C 17.757812 21.976562 17.742188 21.914062 17.695312 21.902344 C 17.640625 21.886719 17.628906 21.925781 17.628906 22.121094 Z M 17.628906 22.121094 "/>
<path style=" stroke:none;fill-rule:nonzero;fill:rgb(0%,0%,0%);fill-opacity:1;" d="M 20.382812 21.929688 C 20.332031 22 20.355469 22.0625 20.429688 22.0625 C 20.46875 22.0625 20.503906 22.023438 20.503906 21.976562 C 20.503906 21.890625 20.425781 21.855469 20.382812 21.929688 Z M 20.382812 21.929688 "/>
</g>
</svg>
