<svg width="24" height="24" viewBox="0 0 24 24" fill="none" xmlns="http://www.w3.org/2000/svg">
<g id="WhatsApp" clip-path="url(#clip0_74_64)">
<path id="Vector" d="M17.7425 14.373C18.0425 14.529 18.2345 14.613 18.2945 14.733C18.3665 14.865 18.3425 15.465 18.0425 16.149C17.8025 16.821 16.5545 17.469 16.0025 17.493C15.4505 17.517 15.4385 17.925 12.4505 16.617C9.46249 15.309 7.66249 12.117 7.51849 11.913C7.37449 11.709 6.36649 10.257 6.41449 8.781C6.47449 7.317 7.24249 6.621 7.55449 6.333C7.84249 6.021 8.16649 5.985 8.37049 6.021H8.93449C9.11449 6.021 9.36649 5.949 9.59449 6.561L10.4225 8.805C10.4945 8.961 10.5425 9.141 10.4345 9.333L10.1105 9.825L9.64249 10.329C9.49849 10.473 9.33049 10.629 9.49849 10.929C9.64249 11.241 10.2425 12.237 11.0825 13.065C12.1745 14.121 13.1345 14.469 13.4225 14.625C13.7105 14.793 13.8905 14.769 14.0705 14.577L15.0425 13.449C15.2705 13.149 15.4625 13.221 15.7385 13.317L17.7425 14.373ZM12.0425 0.0209961C13.6184 0.0209961 15.1788 0.331385 16.6347 0.934442C18.0906 1.5375 19.4135 2.42141 20.5278 3.53571C21.6421 4.65002 22.526 5.97289 23.129 7.42879C23.7321 8.8847 24.0425 10.4451 24.0425 12.021C24.0425 15.2036 22.7782 18.2558 20.5278 20.5063C18.2773 22.7567 15.2251 24.021 12.0425 24.021C9.67849 24.021 7.48249 23.337 5.62249 22.161L0.0424882 24.021L1.90249 18.441C0.685094 16.5212 0.0399069 14.2943 0.0424882 12.021C0.0424882 8.8384 1.30677 5.78615 3.55721 3.53571C5.80764 1.28528 8.85989 0.0209961 12.0425 0.0209961ZM12.0425 2.421C9.49641 2.421 7.05461 3.43242 5.25426 5.23277C3.45391 7.03312 2.44249 9.47492 2.44249 12.021C2.44249 14.085 3.09049 15.993 4.19449 17.553L3.04249 21.021L6.51049 19.869C8.12783 21.0133 10.0613 21.6256 12.0425 21.621C14.5886 21.621 17.0304 20.6096 18.8307 18.8092C20.6311 17.0089 21.6425 14.5671 21.6425 12.021C21.6425 9.47492 20.6311 7.03312 18.8307 5.23277C17.0304 3.43242 14.5886 2.421 12.0425 2.421Z" fill="#EFEFFF"/>
</g>
<defs>
<clipPath id="clip0_74_64">
<rect width="24" height="24" fill="white"/>
</clipPath>
</defs>
</svg>
